<?xml version="1.0" standalone="no"?><!DOCTYPE svg PUBLIC "-//W3C//DTD SVG 1.1//EN" "http://www.w3.org/Graphics/SVG/1.1/DTD/svg11.dtd"><svg t="1735113598415" class="icon" viewBox="0 0 1024 1024" version="1.1" xmlns="http://www.w3.org/2000/svg" p-id="9278" xmlns:xlink="http://www.w3.org/1999/xlink" width="128" height="128"><path d="M800.895751 23.718022a94.347821 94.347821 0 0 0-14.346234-1.089176H252.763969c-52.020336 0-94.343757 42.323421-94.343757 94.343757v800.564527c0 52.0244 42.323421 94.339693 94.343757 94.339693h533.785548c52.0244 0 94.347821-42.323421 94.347821-94.339693V116.972603c0-47.147494-34.760151-86.32531-80.001587-93.254581z" fill="#616161" p-id="9279"></path><path d="M158.420212 383.979172v533.553894c0 52.0244 42.323421 94.339693 94.343757 94.339693h533.785548c52.0244 0 94.347821-42.323421 94.347821-94.339693V383.983236H158.420212z" opacity=".3" p-id="9280"></path><path d="M427.040224 522.190703h-62.952735V459.242032h-30.30591v62.948671H270.832908v30.309974h62.948671v62.952735h30.30591v-62.952735h62.952735z" fill="#ABABAB" p-id="9281"></path><path d="M546.544755 702.664693v309.208066h240.004762c52.0244 0 94.347821-42.323421 94.347821-94.339693v-214.868373h-334.352583z" fill="#FF5C67" p-id="9282"></path><path d="M615.926878 522.190703h157.617555v30.30591h-157.617555zM416.168787 783.771713l-21.434005-21.429941-47.188134 47.184071-47.192199-47.184071-21.42994 21.429941 47.192199 47.188134-47.192199 47.196263 21.42994 21.434004 47.192199-47.200327 47.188134 47.200327 21.434005-21.434004-47.192199-47.196263z" fill="#ABABAB" p-id="9283"></path><path d="M792.889496 91.36478H247.83423a16.256355 16.256355 0 0 0-16.256355 16.256355v211.332616a16.256355 16.256355 0 0 0 16.256355 16.256355h545.055266a16.256355 16.256355 0 0 0 16.256355-16.256355v-211.332616a16.256355 16.256355 0 0 0-16.256355-16.256355z" fill="#97A69B" p-id="9284"></path><path d="M615.926878 782.662216h157.617555v30.30591h-157.617555zM615.926878 851.288419h157.617555v30.30591h-157.617555z" fill="#FFFFFF" p-id="9285"></path></svg>