<?xml version="1.0" standalone="no"?><!DOCTYPE svg PUBLIC "-//W3C//DTD SVG 1.1//EN" "http://www.w3.org/Graphics/SVG/1.1/DTD/svg11.dtd"><svg t="1736085461287" class="icon" viewBox="0 0 1024 1024" version="1.1" xmlns="http://www.w3.org/2000/svg" p-id="12119" width="64" height="64" xmlns:xlink="http://www.w3.org/1999/xlink"><path d="M512.9 512.9l-1.8-1.8 1.8 1.8zM510.9 513.1l2.2-2.2c-0.8 0.7-1.5 1.4-2.2 2.2z" fill="#c9c9c9" p-id="12120"></path><path d="M512 960C759.4 960 960 759.4 960 512s-200.6-448-448-448-448 200.6-448 448S264.6 960 512 960z m-116.8-659c12.5-12.4 32.9-12.4 45.3-1e-8L606.2 466.7l21.5 21.5 2.2 2.2c5.2 5.7 8.3 13.2 8.3 21.5 0.1 8.4-3.1 16.1-8.4 21.8l-1.8 1.8-21.8 21.8L440.5 723.00000001c-12.4 12.5-32.8 12.5-45.2 0.09999999-12.4-12.5-12.4-32.9 0-45.29999999L561 512l-165.8-165.7c-12.4-12.5-12.4-32.9 0-45.3z" fill="#c9c9c9" p-id="12121"></path></svg>